<?xml version="1.0" encoding="UTF-8" standalone="no"?><!DOCTYPE svg PUBLIC "-//W3C//DTD SVG 1.1//EN" "http://www.w3.org/Graphics/SVG/1.1/DTD/svg11.dtd"><svg width="100%" height="100%" viewBox="0 0 271 271" version="1.1" xmlns="http://www.w3.org/2000/svg" xmlns:xlink="http://www.w3.org/1999/xlink" xml:space="preserve" xmlns:serif="http://www.serif.com/" style="fill-rule:evenodd;clip-rule:evenodd;stroke-linejoin:round;stroke-miterlimit:2;"><rect id="Artboard1" x="0" y="0" width="269.629" height="269.629" style="fill:none;"/><g><g id="a"><path d="M229.07,41.361c-25.973,-26.111 -57.292,-39.166 -93.959,-39.166c-37.222,-0 -68.541,13.055 -93.958,39.166c-25.972,25.834 -38.958,57.153 -38.958,93.959c-0,36.944 12.986,68.194 38.958,93.75c25.417,25.972 56.736,38.958 93.958,38.958c36.667,-0 67.986,-12.986 93.959,-38.958c25.972,-25.556 38.958,-56.806 38.958,-93.75c-0,-36.806 -12.986,-68.125 -38.958,-93.959m-93.959,-14.166c29.306,-0 54.792,10.486 76.459,31.458c20.972,21.667 31.458,47.222 31.458,76.667c-0,29.722 -10.486,55.138 -31.458,76.25c-21.667,21.111 -47.153,31.666 -76.459,31.666c-30,0 -55.486,-10.555 -76.458,-31.666c-20.972,-21.112 -31.458,-46.528 -31.458,-76.25c-0,-29.445 10.486,-55 31.458,-76.667c20.972,-20.972 46.458,-31.458 76.458,-31.458m-74.791,119.791c-0,20.417 7.291,38.056 21.875,52.917c14.305,14.305 31.944,21.458 52.916,21.458c20.417,0 38.125,-7.153 53.125,-21.458c14.306,-14.861 21.459,-32.5 21.459,-52.917c-28.195,-4.583 -54.931,-6.597 -80.209,-6.041c-26.25,0.555 -49.305,2.569 -69.166,6.041m44.791,-50.208c0,-4.167 -1.666,-8.056 -5,-11.667c-3.194,-3.333 -7.083,-5 -11.666,-5c-11.112,0 -16.667,5.556 -16.667,16.667c-0,11.111 5.555,16.667 16.667,16.667c11.111,-0 16.666,-5.556 16.666,-16.667m76.667,-16.667c-11.111,0 -16.667,5.556 -16.667,16.667c0,11.111 5.556,16.667 16.667,16.667c10.972,-0 16.458,-5.556 16.458,-16.667c0,-4.167 -1.666,-8.056 -5,-11.667c-3.333,-3.333 -7.153,-5 -11.458,-5Z" style="fill-rule:nonzero;"/></g></g></svg>